<mxfile host="Electron" agent="Mozilla/5.0 (Windows NT 10.0; Win64; x64) AppleWebKit/537.36 (KHTML, like Gecko) draw.io/24.7.17 Chrome/128.0.6613.36 Electron/32.0.1 Safari/537.36" version="24.7.17">
  <diagram name="Page-1" id="ReL3WHF70ZllSQXpzm4o">
    <mxGraphModel dx="1920" dy="1236" grid="1" gridSize="10" guides="1" tooltips="1" connect="1" arrows="1" fold="1" page="1" pageScale="1" pageWidth="827" pageHeight="1169" background="none" math="0" shadow="0">
      <root>
        <mxCell id="0" />
        <mxCell id="1" parent="0" />
        <mxCell id="yG6ZhMst78t4kocirP4l-4" value="" style="edgeStyle=orthogonalEdgeStyle;rounded=0;orthogonalLoop=1;jettySize=auto;html=1;" parent="1" source="yG6ZhMst78t4kocirP4l-2" target="yG6ZhMst78t4kocirP4l-3" edge="1">
          <mxGeometry relative="1" as="geometry" />
        </mxCell>
        <mxCell id="yG6ZhMst78t4kocirP4l-2" value="START" style="strokeWidth=2;html=1;shape=mxgraph.flowchart.terminator;whiteSpace=wrap;" parent="1" vertex="1">
          <mxGeometry x="310" y="40" width="100" height="60" as="geometry" />
        </mxCell>
        <mxCell id="yG6ZhMst78t4kocirP4l-6" value="" style="edgeStyle=orthogonalEdgeStyle;rounded=0;orthogonalLoop=1;jettySize=auto;html=1;" parent="1" source="yG6ZhMst78t4kocirP4l-3" target="yG6ZhMst78t4kocirP4l-5" edge="1">
          <mxGeometry relative="1" as="geometry" />
        </mxCell>
        <mxCell id="BIb3gX1T2sMR-RPmpEdh-4" style="edgeStyle=orthogonalEdgeStyle;rounded=0;orthogonalLoop=1;jettySize=auto;html=1;exitX=1;exitY=1;exitDx=0;exitDy=0;" edge="1" parent="1" source="yG6ZhMst78t4kocirP4l-3">
          <mxGeometry relative="1" as="geometry">
            <mxPoint x="440" y="231.42857142857144" as="targetPoint" />
          </mxGeometry>
        </mxCell>
        <mxCell id="yG6ZhMst78t4kocirP4l-3" value="OUTPUT&lt;div&gt;MENU AWAL&lt;/div&gt;&lt;div&gt;LOGIN, REGISTER,&lt;/div&gt;&lt;div&gt;KELUAR&lt;/div&gt;" style="shape=parallelogram;perimeter=parallelogramPerimeter;whiteSpace=wrap;html=1;fixedSize=1;strokeWidth=2;" parent="1" vertex="1">
          <mxGeometry x="300" y="180" width="120" height="60" as="geometry" />
        </mxCell>
        <mxCell id="yG6ZhMst78t4kocirP4l-8" value="" style="edgeStyle=orthogonalEdgeStyle;rounded=0;orthogonalLoop=1;jettySize=auto;html=1;" parent="1" source="yG6ZhMst78t4kocirP4l-5" target="yG6ZhMst78t4kocirP4l-7" edge="1">
          <mxGeometry relative="1" as="geometry" />
        </mxCell>
        <mxCell id="BIb3gX1T2sMR-RPmpEdh-2" style="edgeStyle=orthogonalEdgeStyle;rounded=0;orthogonalLoop=1;jettySize=auto;html=1;exitX=0;exitY=0;exitDx=0;exitDy=0;endArrow=none;endFill=0;startArrow=classic;startFill=1;" edge="1" parent="1" source="yG6ZhMst78t4kocirP4l-5">
          <mxGeometry relative="1" as="geometry">
            <mxPoint x="270" y="328.41666666666674" as="targetPoint" />
          </mxGeometry>
        </mxCell>
        <mxCell id="yG6ZhMst78t4kocirP4l-5" value="INPUT&lt;div&gt;PILIHAN&lt;/div&gt;&lt;div&gt;MENU AWAL&lt;/div&gt;" style="shape=parallelogram;perimeter=parallelogramPerimeter;whiteSpace=wrap;html=1;fixedSize=1;strokeWidth=2;" parent="1" vertex="1">
          <mxGeometry x="300" y="320" width="120" height="60" as="geometry" />
        </mxCell>
        <mxCell id="bujhWI78WCHv4hqRlmOy-9" value="" style="edgeStyle=orthogonalEdgeStyle;rounded=0;orthogonalLoop=1;jettySize=auto;html=1;" parent="1" source="yG6ZhMst78t4kocirP4l-7" target="bujhWI78WCHv4hqRlmOy-8" edge="1">
          <mxGeometry relative="1" as="geometry" />
        </mxCell>
        <mxCell id="BIb3gX1T2sMR-RPmpEdh-6" value="" style="edgeStyle=orthogonalEdgeStyle;rounded=0;orthogonalLoop=1;jettySize=auto;html=1;" edge="1" parent="1" source="yG6ZhMst78t4kocirP4l-7" target="BIb3gX1T2sMR-RPmpEdh-5">
          <mxGeometry relative="1" as="geometry" />
        </mxCell>
        <mxCell id="yG6ZhMst78t4kocirP4l-7" value="IF&lt;div&gt;PILIHAN =&lt;/div&gt;&lt;div&gt;LOGIN&lt;/div&gt;" style="rhombus;whiteSpace=wrap;html=1;strokeWidth=2;" parent="1" vertex="1">
          <mxGeometry x="320" y="450" width="80" height="80" as="geometry" />
        </mxCell>
        <mxCell id="yG6ZhMst78t4kocirP4l-15" value="CLEAR SCREEN&lt;div&gt;END&lt;/div&gt;" style="rounded=1;whiteSpace=wrap;html=1;strokeWidth=2;arcSize=50;" parent="1" vertex="1">
          <mxGeometry x="300" y="810" width="120" height="60" as="geometry" />
        </mxCell>
        <mxCell id="yG6ZhMst78t4kocirP4l-23" value="" style="edgeStyle=orthogonalEdgeStyle;rounded=0;orthogonalLoop=1;jettySize=auto;html=1;" parent="1" source="yG6ZhMst78t4kocirP4l-17" target="yG6ZhMst78t4kocirP4l-22" edge="1">
          <mxGeometry relative="1" as="geometry" />
        </mxCell>
        <mxCell id="BIb3gX1T2sMR-RPmpEdh-60" style="edgeStyle=orthogonalEdgeStyle;rounded=0;orthogonalLoop=1;jettySize=auto;html=1;exitX=0;exitY=0;exitDx=0;exitDy=0;startArrow=classic;startFill=1;endArrow=none;endFill=0;" edge="1" parent="1" source="yG6ZhMst78t4kocirP4l-17">
          <mxGeometry relative="1" as="geometry">
            <mxPoint x="980" y="143.66666666666674" as="targetPoint" />
          </mxGeometry>
        </mxCell>
        <mxCell id="yG6ZhMst78t4kocirP4l-17" value="INPUT&lt;div&gt;USERNAME&lt;/div&gt;&lt;div&gt;PASSWORD&lt;/div&gt;" style="shape=parallelogram;perimeter=parallelogramPerimeter;whiteSpace=wrap;html=1;fixedSize=1;strokeWidth=2;" parent="1" vertex="1">
          <mxGeometry x="990" y="135" width="120" height="60" as="geometry" />
        </mxCell>
        <mxCell id="BIb3gX1T2sMR-RPmpEdh-23" style="edgeStyle=orthogonalEdgeStyle;rounded=0;orthogonalLoop=1;jettySize=auto;html=1;exitX=0.5;exitY=1;exitDx=0;exitDy=0;entryX=0.5;entryY=0;entryDx=0;entryDy=0;" edge="1" parent="1" source="yG6ZhMst78t4kocirP4l-19" target="BIb3gX1T2sMR-RPmpEdh-21">
          <mxGeometry relative="1" as="geometry">
            <Array as="points">
              <mxPoint x="1500" y="520" />
              <mxPoint x="1250" y="520" />
            </Array>
          </mxGeometry>
        </mxCell>
        <mxCell id="BIb3gX1T2sMR-RPmpEdh-61" style="edgeStyle=orthogonalEdgeStyle;rounded=0;orthogonalLoop=1;jettySize=auto;html=1;exitX=0;exitY=0;exitDx=0;exitDy=0;startArrow=classic;startFill=1;endArrow=none;endFill=0;" edge="1" parent="1" source="yG6ZhMst78t4kocirP4l-19">
          <mxGeometry relative="1" as="geometry">
            <mxPoint x="1430" y="143.66666666666674" as="targetPoint" />
          </mxGeometry>
        </mxCell>
        <mxCell id="yG6ZhMst78t4kocirP4l-19" value="INPUT&lt;div&gt;USERNAME BARU&lt;/div&gt;&lt;div&gt;PASSWORD BARU&lt;/div&gt;" style="shape=parallelogram;perimeter=parallelogramPerimeter;whiteSpace=wrap;html=1;fixedSize=1;strokeWidth=2;" parent="1" vertex="1">
          <mxGeometry x="1440" y="135" width="120" height="60" as="geometry" />
        </mxCell>
        <mxCell id="bujhWI78WCHv4hqRlmOy-16" value="" style="edgeStyle=orthogonalEdgeStyle;rounded=0;orthogonalLoop=1;jettySize=auto;html=1;" parent="1" source="yG6ZhMst78t4kocirP4l-22" target="bujhWI78WCHv4hqRlmOy-15" edge="1">
          <mxGeometry relative="1" as="geometry" />
        </mxCell>
        <mxCell id="BIb3gX1T2sMR-RPmpEdh-47" value="" style="edgeStyle=orthogonalEdgeStyle;rounded=0;orthogonalLoop=1;jettySize=auto;html=1;" edge="1" parent="1" source="yG6ZhMst78t4kocirP4l-22" target="BIb3gX1T2sMR-RPmpEdh-45">
          <mxGeometry relative="1" as="geometry" />
        </mxCell>
        <mxCell id="yG6ZhMst78t4kocirP4l-22" value="IF&lt;div&gt;ROLE =&lt;/div&gt;&lt;div&gt;ADMIN&lt;/div&gt;" style="rhombus;whiteSpace=wrap;html=1;strokeWidth=2;" parent="1" vertex="1">
          <mxGeometry x="1009" y="250" width="80" height="80" as="geometry" />
        </mxCell>
        <mxCell id="yG6ZhMst78t4kocirP4l-36" value="" style="edgeStyle=orthogonalEdgeStyle;rounded=0;orthogonalLoop=1;jettySize=auto;html=1;" parent="1" source="yG6ZhMst78t4kocirP4l-27" target="yG6ZhMst78t4kocirP4l-35" edge="1">
          <mxGeometry relative="1" as="geometry" />
        </mxCell>
        <mxCell id="yG6ZhMst78t4kocirP4l-27" value="INPUT&lt;div&gt;PILIHAN&lt;/div&gt;" style="shape=parallelogram;perimeter=parallelogramPerimeter;whiteSpace=wrap;html=1;fixedSize=1;strokeWidth=2;" parent="1" vertex="1">
          <mxGeometry x="1700" y="270" width="120" height="60" as="geometry" />
        </mxCell>
        <mxCell id="bujhWI78WCHv4hqRlmOy-25" value="" style="edgeStyle=orthogonalEdgeStyle;rounded=0;orthogonalLoop=1;jettySize=auto;html=1;" parent="1" source="yG6ZhMst78t4kocirP4l-31" target="yG6ZhMst78t4kocirP4l-27" edge="1">
          <mxGeometry relative="1" as="geometry" />
        </mxCell>
        <mxCell id="BIb3gX1T2sMR-RPmpEdh-63" style="edgeStyle=orthogonalEdgeStyle;rounded=0;orthogonalLoop=1;jettySize=auto;html=1;exitX=1;exitY=1;exitDx=0;exitDy=0;" edge="1" parent="1" source="yG6ZhMst78t4kocirP4l-31">
          <mxGeometry relative="1" as="geometry">
            <mxPoint x="1840" y="201.66666666666663" as="targetPoint" />
          </mxGeometry>
        </mxCell>
        <mxCell id="yG6ZhMst78t4kocirP4l-31" value="OUTPUT&lt;div&gt;&lt;span style=&quot;background-color: initial;&quot;&gt;MENU&lt;/span&gt;&lt;/div&gt;&lt;div&gt;MANAJEMEN ATLET&lt;/div&gt;" style="shape=parallelogram;perimeter=parallelogramPerimeter;whiteSpace=wrap;html=1;fixedSize=1;strokeWidth=2;" parent="1" vertex="1">
          <mxGeometry x="1700" y="150" width="120" height="60" as="geometry" />
        </mxCell>
        <mxCell id="bujhWI78WCHv4hqRlmOy-3" value="" style="edgeStyle=orthogonalEdgeStyle;rounded=0;orthogonalLoop=1;jettySize=auto;html=1;" parent="1" source="yG6ZhMst78t4kocirP4l-35" target="bujhWI78WCHv4hqRlmOy-2" edge="1">
          <mxGeometry relative="1" as="geometry" />
        </mxCell>
        <mxCell id="bujhWI78WCHv4hqRlmOy-47" value="" style="edgeStyle=orthogonalEdgeStyle;rounded=0;orthogonalLoop=1;jettySize=auto;html=1;" parent="1" source="yG6ZhMst78t4kocirP4l-35" target="yG6ZhMst78t4kocirP4l-41" edge="1">
          <mxGeometry relative="1" as="geometry" />
        </mxCell>
        <mxCell id="yG6ZhMst78t4kocirP4l-35" value="IF&lt;div&gt;PILIHAN = 1&lt;/div&gt;&lt;div&gt;&lt;br&gt;&lt;/div&gt;" style="rhombus;whiteSpace=wrap;html=1;strokeWidth=2;" parent="1" vertex="1">
          <mxGeometry x="1720" y="400" width="80" height="80" as="geometry" />
        </mxCell>
        <mxCell id="bujhWI78WCHv4hqRlmOy-41" value="" style="edgeStyle=orthogonalEdgeStyle;rounded=0;orthogonalLoop=1;jettySize=auto;html=1;" parent="1" source="yG6ZhMst78t4kocirP4l-37" target="yG6ZhMst78t4kocirP4l-58" edge="1">
          <mxGeometry relative="1" as="geometry" />
        </mxCell>
        <mxCell id="BIb3gX1T2sMR-RPmpEdh-67" style="edgeStyle=orthogonalEdgeStyle;rounded=0;orthogonalLoop=1;jettySize=auto;html=1;exitX=1;exitY=1;exitDx=0;exitDy=0;" edge="1" parent="1" source="yG6ZhMst78t4kocirP4l-37">
          <mxGeometry relative="1" as="geometry">
            <mxPoint x="2130" y="691.1666666666667" as="targetPoint" />
          </mxGeometry>
        </mxCell>
        <mxCell id="yG6ZhMst78t4kocirP4l-37" value="OUTPUT&lt;div&gt;DAFTAR ATLET&lt;/div&gt;" style="shape=parallelogram;perimeter=parallelogramPerimeter;whiteSpace=wrap;html=1;fixedSize=1;strokeWidth=2;" parent="1" vertex="1">
          <mxGeometry x="2000" y="640" width="120" height="60" as="geometry" />
        </mxCell>
        <mxCell id="bujhWI78WCHv4hqRlmOy-52" value="" style="edgeStyle=orthogonalEdgeStyle;rounded=0;orthogonalLoop=1;jettySize=auto;html=1;" parent="1" source="yG6ZhMst78t4kocirP4l-41" target="yG6ZhMst78t4kocirP4l-46" edge="1">
          <mxGeometry relative="1" as="geometry" />
        </mxCell>
        <mxCell id="BIb3gX1T2sMR-RPmpEdh-65" style="edgeStyle=orthogonalEdgeStyle;rounded=0;orthogonalLoop=1;jettySize=auto;html=1;exitX=1;exitY=1;exitDx=0;exitDy=0;" edge="1" parent="1" source="yG6ZhMst78t4kocirP4l-41">
          <mxGeometry relative="1" as="geometry">
            <mxPoint x="2280" y="461.16666666666674" as="targetPoint" />
          </mxGeometry>
        </mxCell>
        <mxCell id="yG6ZhMst78t4kocirP4l-41" value="OUTPUT&lt;div&gt;TAMBAH ATLET&lt;/div&gt;&lt;div&gt;BARU&lt;/div&gt;" style="shape=parallelogram;perimeter=parallelogramPerimeter;whiteSpace=wrap;html=1;fixedSize=1;strokeWidth=2;" parent="1" vertex="1">
          <mxGeometry x="2150" y="410" width="120" height="60" as="geometry" />
        </mxCell>
        <mxCell id="bujhWI78WCHv4hqRlmOy-53" value="" style="edgeStyle=orthogonalEdgeStyle;rounded=0;orthogonalLoop=1;jettySize=auto;html=1;" parent="1" source="yG6ZhMst78t4kocirP4l-46" target="yG6ZhMst78t4kocirP4l-48" edge="1">
          <mxGeometry relative="1" as="geometry" />
        </mxCell>
        <mxCell id="BIb3gX1T2sMR-RPmpEdh-73" style="edgeStyle=orthogonalEdgeStyle;rounded=0;orthogonalLoop=1;jettySize=auto;html=1;exitX=0;exitY=0;exitDx=0;exitDy=0;startArrow=classic;startFill=1;endArrow=none;endFill=0;" edge="1" parent="1" source="yG6ZhMst78t4kocirP4l-46">
          <mxGeometry relative="1" as="geometry">
            <mxPoint x="2140" y="578.2" as="targetPoint" />
          </mxGeometry>
        </mxCell>
        <mxCell id="yG6ZhMst78t4kocirP4l-46" value="INPUT&lt;div&gt;DATA DIRI ATLET&lt;/div&gt;" style="shape=parallelogram;perimeter=parallelogramPerimeter;whiteSpace=wrap;html=1;fixedSize=1;strokeWidth=2;" parent="1" vertex="1">
          <mxGeometry x="2150" y="570" width="120" height="60" as="geometry" />
        </mxCell>
        <mxCell id="bujhWI78WCHv4hqRlmOy-63" style="edgeStyle=orthogonalEdgeStyle;rounded=0;orthogonalLoop=1;jettySize=auto;html=1;exitX=1;exitY=0.5;exitDx=0;exitDy=0;entryX=0;entryY=0.75;entryDx=0;entryDy=0;" parent="1" source="yG6ZhMst78t4kocirP4l-48" target="yG6ZhMst78t4kocirP4l-54" edge="1">
          <mxGeometry relative="1" as="geometry">
            <Array as="points">
              <mxPoint x="2300" y="710" />
              <mxPoint x="2300" y="570" />
              <mxPoint x="2356" y="570" />
            </Array>
          </mxGeometry>
        </mxCell>
        <mxCell id="BIb3gX1T2sMR-RPmpEdh-66" style="edgeStyle=orthogonalEdgeStyle;rounded=0;orthogonalLoop=1;jettySize=auto;html=1;exitX=1;exitY=1;exitDx=0;exitDy=0;" edge="1" parent="1" source="yG6ZhMst78t4kocirP4l-48">
          <mxGeometry relative="1" as="geometry">
            <mxPoint x="2280" y="731.1666666666667" as="targetPoint" />
          </mxGeometry>
        </mxCell>
        <mxCell id="yG6ZhMst78t4kocirP4l-48" value="OUTPUT&lt;div&gt;ATLET TELAH&lt;/div&gt;&lt;div&gt;DITAMBAHKAN&lt;/div&gt;" style="shape=parallelogram;perimeter=parallelogramPerimeter;whiteSpace=wrap;html=1;fixedSize=1;strokeWidth=2;" parent="1" vertex="1">
          <mxGeometry x="2150" y="680" width="120" height="60" as="geometry" />
        </mxCell>
        <mxCell id="bujhWI78WCHv4hqRlmOy-56" style="edgeStyle=orthogonalEdgeStyle;rounded=0;orthogonalLoop=1;jettySize=auto;html=1;exitX=1;exitY=0.25;exitDx=0;exitDy=0;entryX=0;entryY=0;entryDx=0;entryDy=0;" parent="1" source="yG6ZhMst78t4kocirP4l-50" target="yG6ZhMst78t4kocirP4l-54" edge="1">
          <mxGeometry relative="1" as="geometry">
            <Array as="points">
              <mxPoint x="1985" y="529" />
            </Array>
          </mxGeometry>
        </mxCell>
        <mxCell id="BIb3gX1T2sMR-RPmpEdh-64" style="edgeStyle=orthogonalEdgeStyle;rounded=0;orthogonalLoop=1;jettySize=auto;html=1;exitX=1;exitY=1;exitDx=0;exitDy=0;" edge="1" parent="1" source="yG6ZhMst78t4kocirP4l-50">
          <mxGeometry relative="1" as="geometry">
            <mxPoint x="2000" y="571.1666666666667" as="targetPoint" />
          </mxGeometry>
        </mxCell>
        <mxCell id="yG6ZhMst78t4kocirP4l-50" value="OUTPUT&lt;div&gt;DAFTAR ATLET&lt;/div&gt;" style="shape=parallelogram;perimeter=parallelogramPerimeter;whiteSpace=wrap;html=1;fixedSize=1;strokeWidth=2;" parent="1" vertex="1">
          <mxGeometry x="1870" y="520" width="120" height="60" as="geometry" />
        </mxCell>
        <mxCell id="bujhWI78WCHv4hqRlmOy-38" value="" style="edgeStyle=orthogonalEdgeStyle;rounded=0;orthogonalLoop=1;jettySize=auto;html=1;" parent="1" source="yG6ZhMst78t4kocirP4l-52" target="yG6ZhMst78t4kocirP4l-60" edge="1">
          <mxGeometry relative="1" as="geometry" />
        </mxCell>
        <mxCell id="BIb3gX1T2sMR-RPmpEdh-69" style="edgeStyle=orthogonalEdgeStyle;rounded=0;orthogonalLoop=1;jettySize=auto;html=1;exitX=1;exitY=1;exitDx=0;exitDy=0;" edge="1" parent="1" source="yG6ZhMst78t4kocirP4l-52">
          <mxGeometry relative="1" as="geometry">
            <mxPoint x="1990" y="811.1666666666667" as="targetPoint" />
          </mxGeometry>
        </mxCell>
        <mxCell id="yG6ZhMst78t4kocirP4l-52" value="OUTPUT&lt;div&gt;DAFTAR ATLET&lt;/div&gt;" style="shape=parallelogram;perimeter=parallelogramPerimeter;whiteSpace=wrap;html=1;fixedSize=1;strokeWidth=2;" parent="1" vertex="1">
          <mxGeometry x="1860" y="760" width="120" height="60" as="geometry" />
        </mxCell>
        <mxCell id="bujhWI78WCHv4hqRlmOy-57" style="edgeStyle=orthogonalEdgeStyle;rounded=0;orthogonalLoop=1;jettySize=auto;html=1;exitX=0.5;exitY=0;exitDx=0;exitDy=0;entryX=1;entryY=0.5;entryDx=0;entryDy=0;" parent="1" source="yG6ZhMst78t4kocirP4l-54" target="yG6ZhMst78t4kocirP4l-31" edge="1">
          <mxGeometry relative="1" as="geometry">
            <Array as="points">
              <mxPoint x="2410" y="180" />
            </Array>
          </mxGeometry>
        </mxCell>
        <mxCell id="yG6ZhMst78t4kocirP4l-54" value="INPUT&lt;div&gt;ENTER UNTUK KEMBALI KE MENU&lt;/div&gt;" style="shape=parallelogram;perimeter=parallelogramPerimeter;whiteSpace=wrap;html=1;fixedSize=1;strokeWidth=2;" parent="1" vertex="1">
          <mxGeometry x="2350" y="520" width="120" height="60" as="geometry" />
        </mxCell>
        <mxCell id="bujhWI78WCHv4hqRlmOy-42" value="" style="edgeStyle=orthogonalEdgeStyle;rounded=0;orthogonalLoop=1;jettySize=auto;html=1;" parent="1" source="yG6ZhMst78t4kocirP4l-58" target="yG6ZhMst78t4kocirP4l-62" edge="1">
          <mxGeometry relative="1" as="geometry" />
        </mxCell>
        <mxCell id="BIb3gX1T2sMR-RPmpEdh-72" style="edgeStyle=orthogonalEdgeStyle;rounded=0;orthogonalLoop=1;jettySize=auto;html=1;exitX=0;exitY=0;exitDx=0;exitDy=0;startArrow=classic;startFill=1;endArrow=none;endFill=0;" edge="1" parent="1" source="yG6ZhMst78t4kocirP4l-58">
          <mxGeometry relative="1" as="geometry">
            <mxPoint x="1990" y="748.3333333333333" as="targetPoint" />
          </mxGeometry>
        </mxCell>
        <mxCell id="yG6ZhMst78t4kocirP4l-58" value="INPUT&lt;div&gt;PILIHAN ATLET UNTUK DI EDIT&lt;/div&gt;" style="shape=parallelogram;perimeter=parallelogramPerimeter;whiteSpace=wrap;html=1;fixedSize=1;strokeWidth=2;" parent="1" vertex="1">
          <mxGeometry x="2000" y="740" width="120" height="60" as="geometry" />
        </mxCell>
        <mxCell id="bujhWI78WCHv4hqRlmOy-39" value="" style="edgeStyle=orthogonalEdgeStyle;rounded=0;orthogonalLoop=1;jettySize=auto;html=1;" parent="1" source="yG6ZhMst78t4kocirP4l-60" target="yG6ZhMst78t4kocirP4l-64" edge="1">
          <mxGeometry relative="1" as="geometry" />
        </mxCell>
        <mxCell id="BIb3gX1T2sMR-RPmpEdh-71" style="edgeStyle=orthogonalEdgeStyle;rounded=0;orthogonalLoop=1;jettySize=auto;html=1;exitX=0;exitY=0;exitDx=0;exitDy=0;startArrow=classic;startFill=1;endArrow=none;endFill=0;" edge="1" parent="1" source="yG6ZhMst78t4kocirP4l-60">
          <mxGeometry relative="1" as="geometry">
            <mxPoint x="1850" y="868.3333333333333" as="targetPoint" />
          </mxGeometry>
        </mxCell>
        <mxCell id="yG6ZhMst78t4kocirP4l-60" value="INPUT&lt;div&gt;PILIHAN ATLET UNTUK DI HAPUS&lt;/div&gt;" style="shape=parallelogram;perimeter=parallelogramPerimeter;whiteSpace=wrap;html=1;fixedSize=1;strokeWidth=2;" parent="1" vertex="1">
          <mxGeometry x="1860" y="860" width="120" height="60" as="geometry" />
        </mxCell>
        <mxCell id="bujhWI78WCHv4hqRlmOy-54" style="edgeStyle=orthogonalEdgeStyle;rounded=0;orthogonalLoop=1;jettySize=auto;html=1;exitX=1;exitY=0.75;exitDx=0;exitDy=0;entryX=0.25;entryY=1;entryDx=0;entryDy=0;" parent="1" source="yG6ZhMst78t4kocirP4l-62" target="yG6ZhMst78t4kocirP4l-54" edge="1">
          <mxGeometry relative="1" as="geometry" />
        </mxCell>
        <mxCell id="BIb3gX1T2sMR-RPmpEdh-68" style="edgeStyle=orthogonalEdgeStyle;rounded=0;orthogonalLoop=1;jettySize=auto;html=1;exitX=1;exitY=1;exitDx=0;exitDy=0;" edge="1" parent="1" source="yG6ZhMst78t4kocirP4l-62">
          <mxGeometry relative="1" as="geometry">
            <mxPoint x="2130" y="891.1666666666667" as="targetPoint" />
          </mxGeometry>
        </mxCell>
        <mxCell id="yG6ZhMst78t4kocirP4l-62" value="OUTPUT&lt;div&gt;EDIT BERHASIL&lt;/div&gt;" style="shape=parallelogram;perimeter=parallelogramPerimeter;whiteSpace=wrap;html=1;fixedSize=1;strokeWidth=2;" parent="1" vertex="1">
          <mxGeometry x="2000" y="840" width="120" height="60" as="geometry" />
        </mxCell>
        <mxCell id="bujhWI78WCHv4hqRlmOy-50" value="" style="edgeStyle=orthogonalEdgeStyle;rounded=0;orthogonalLoop=1;jettySize=auto;html=1;entryX=0.75;entryY=1;entryDx=0;entryDy=0;" parent="1" source="yG6ZhMst78t4kocirP4l-64" target="yG6ZhMst78t4kocirP4l-54" edge="1">
          <mxGeometry relative="1" as="geometry">
            <mxPoint x="2190" y="990" as="targetPoint" />
          </mxGeometry>
        </mxCell>
        <mxCell id="BIb3gX1T2sMR-RPmpEdh-70" style="edgeStyle=orthogonalEdgeStyle;rounded=0;orthogonalLoop=1;jettySize=auto;html=1;exitX=1;exitY=1;exitDx=0;exitDy=0;" edge="1" parent="1" source="yG6ZhMst78t4kocirP4l-64">
          <mxGeometry relative="1" as="geometry">
            <mxPoint x="1990" y="1011.1666666666667" as="targetPoint" />
          </mxGeometry>
        </mxCell>
        <mxCell id="yG6ZhMst78t4kocirP4l-64" value="OUTPUT&lt;div&gt;HAPUS BERHASIL&lt;/div&gt;" style="shape=parallelogram;perimeter=parallelogramPerimeter;whiteSpace=wrap;html=1;fixedSize=1;strokeWidth=2;" parent="1" vertex="1">
          <mxGeometry x="1860" y="960" width="120" height="60" as="geometry" />
        </mxCell>
        <mxCell id="bujhWI78WCHv4hqRlmOy-5" value="" style="edgeStyle=orthogonalEdgeStyle;rounded=0;orthogonalLoop=1;jettySize=auto;html=1;" parent="1" source="bujhWI78WCHv4hqRlmOy-2" target="bujhWI78WCHv4hqRlmOy-4" edge="1">
          <mxGeometry relative="1" as="geometry" />
        </mxCell>
        <mxCell id="bujhWI78WCHv4hqRlmOy-43" value="" style="edgeStyle=orthogonalEdgeStyle;rounded=0;orthogonalLoop=1;jettySize=auto;html=1;" parent="1" source="bujhWI78WCHv4hqRlmOy-2" target="yG6ZhMst78t4kocirP4l-50" edge="1">
          <mxGeometry relative="1" as="geometry" />
        </mxCell>
        <mxCell id="bujhWI78WCHv4hqRlmOy-2" value="IF&lt;div&gt;PILIHAN = 2&lt;/div&gt;&lt;div&gt;&lt;br&gt;&lt;/div&gt;" style="rhombus;whiteSpace=wrap;html=1;strokeWidth=2;" parent="1" vertex="1">
          <mxGeometry x="1720" y="510" width="80" height="80" as="geometry" />
        </mxCell>
        <mxCell id="bujhWI78WCHv4hqRlmOy-7" value="" style="edgeStyle=orthogonalEdgeStyle;rounded=0;orthogonalLoop=1;jettySize=auto;html=1;" parent="1" source="bujhWI78WCHv4hqRlmOy-4" target="bujhWI78WCHv4hqRlmOy-6" edge="1">
          <mxGeometry relative="1" as="geometry" />
        </mxCell>
        <mxCell id="bujhWI78WCHv4hqRlmOy-40" style="edgeStyle=orthogonalEdgeStyle;rounded=0;orthogonalLoop=1;jettySize=auto;html=1;exitX=1;exitY=0.5;exitDx=0;exitDy=0;entryX=0;entryY=0.5;entryDx=0;entryDy=0;" parent="1" source="bujhWI78WCHv4hqRlmOy-4" target="yG6ZhMst78t4kocirP4l-37" edge="1">
          <mxGeometry relative="1" as="geometry" />
        </mxCell>
        <mxCell id="bujhWI78WCHv4hqRlmOy-4" value="IF&lt;div&gt;PILIHAN = 3&lt;/div&gt;&lt;div&gt;&lt;br&gt;&lt;/div&gt;" style="rhombus;whiteSpace=wrap;html=1;strokeWidth=2;" parent="1" vertex="1">
          <mxGeometry x="1720" y="630" width="80" height="80" as="geometry" />
        </mxCell>
        <mxCell id="bujhWI78WCHv4hqRlmOy-35" value="" style="edgeStyle=orthogonalEdgeStyle;rounded=0;orthogonalLoop=1;jettySize=auto;html=1;" parent="1" source="bujhWI78WCHv4hqRlmOy-6" target="bujhWI78WCHv4hqRlmOy-34" edge="1">
          <mxGeometry relative="1" as="geometry" />
        </mxCell>
        <mxCell id="bujhWI78WCHv4hqRlmOy-37" style="edgeStyle=orthogonalEdgeStyle;rounded=0;orthogonalLoop=1;jettySize=auto;html=1;exitX=1;exitY=0.5;exitDx=0;exitDy=0;entryX=0;entryY=0.5;entryDx=0;entryDy=0;" parent="1" source="bujhWI78WCHv4hqRlmOy-6" target="yG6ZhMst78t4kocirP4l-52" edge="1">
          <mxGeometry relative="1" as="geometry" />
        </mxCell>
        <mxCell id="bujhWI78WCHv4hqRlmOy-6" value="IF&lt;div&gt;PILIHAN = 4&lt;/div&gt;&lt;div&gt;&lt;br&gt;&lt;/div&gt;" style="rhombus;whiteSpace=wrap;html=1;strokeWidth=2;" parent="1" vertex="1">
          <mxGeometry x="1720" y="750" width="80" height="80" as="geometry" />
        </mxCell>
        <mxCell id="bujhWI78WCHv4hqRlmOy-12" value="" style="edgeStyle=orthogonalEdgeStyle;rounded=0;orthogonalLoop=1;jettySize=auto;html=1;" parent="1" source="bujhWI78WCHv4hqRlmOy-8" target="bujhWI78WCHv4hqRlmOy-11" edge="1">
          <mxGeometry relative="1" as="geometry" />
        </mxCell>
        <mxCell id="BIb3gX1T2sMR-RPmpEdh-9" value="" style="edgeStyle=orthogonalEdgeStyle;rounded=0;orthogonalLoop=1;jettySize=auto;html=1;" edge="1" parent="1" source="bujhWI78WCHv4hqRlmOy-8" target="BIb3gX1T2sMR-RPmpEdh-8">
          <mxGeometry relative="1" as="geometry" />
        </mxCell>
        <mxCell id="bujhWI78WCHv4hqRlmOy-8" value="IF&lt;div&gt;PILIHAN =&lt;/div&gt;&lt;div&gt;REGISTER&lt;/div&gt;" style="rhombus;whiteSpace=wrap;html=1;strokeWidth=2;" parent="1" vertex="1">
          <mxGeometry x="320" y="560" width="80" height="80" as="geometry" />
        </mxCell>
        <mxCell id="BIb3gX1T2sMR-RPmpEdh-3" value="" style="edgeStyle=orthogonalEdgeStyle;rounded=0;orthogonalLoop=1;jettySize=auto;html=1;" edge="1" parent="1" source="bujhWI78WCHv4hqRlmOy-11" target="yG6ZhMst78t4kocirP4l-15">
          <mxGeometry relative="1" as="geometry" />
        </mxCell>
        <mxCell id="bujhWI78WCHv4hqRlmOy-11" value="IF&lt;div&gt;PILIHAN =&lt;/div&gt;&lt;div&gt;KELUAR&lt;/div&gt;" style="rhombus;whiteSpace=wrap;html=1;strokeWidth=2;" parent="1" vertex="1">
          <mxGeometry x="320" y="680" width="80" height="80" as="geometry" />
        </mxCell>
        <mxCell id="BIb3gX1T2sMR-RPmpEdh-24" style="edgeStyle=orthogonalEdgeStyle;rounded=0;orthogonalLoop=1;jettySize=auto;html=1;exitX=0.5;exitY=1;exitDx=0;exitDy=0;entryX=0.5;entryY=0;entryDx=0;entryDy=0;" edge="1" parent="1" source="bujhWI78WCHv4hqRlmOy-15" target="BIb3gX1T2sMR-RPmpEdh-21">
          <mxGeometry relative="1" as="geometry">
            <Array as="points">
              <mxPoint x="1049" y="520" />
              <mxPoint x="1250" y="520" />
            </Array>
          </mxGeometry>
        </mxCell>
        <mxCell id="BIb3gX1T2sMR-RPmpEdh-48" value="" style="edgeStyle=orthogonalEdgeStyle;rounded=0;orthogonalLoop=1;jettySize=auto;html=1;" edge="1" parent="1" source="bujhWI78WCHv4hqRlmOy-15" target="BIb3gX1T2sMR-RPmpEdh-43">
          <mxGeometry relative="1" as="geometry" />
        </mxCell>
        <mxCell id="bujhWI78WCHv4hqRlmOy-15" value="IF&lt;div&gt;ROLE =&lt;/div&gt;&lt;div&gt;USER&lt;/div&gt;" style="rhombus;whiteSpace=wrap;html=1;strokeWidth=2;" parent="1" vertex="1">
          <mxGeometry x="1009" y="380" width="80" height="80" as="geometry" />
        </mxCell>
        <mxCell id="bujhWI78WCHv4hqRlmOy-32" value="" style="edgeStyle=orthogonalEdgeStyle;rounded=0;orthogonalLoop=1;jettySize=auto;html=1;" parent="1" source="bujhWI78WCHv4hqRlmOy-23" target="bujhWI78WCHv4hqRlmOy-28" edge="1">
          <mxGeometry relative="1" as="geometry" />
        </mxCell>
        <mxCell id="BIb3gX1T2sMR-RPmpEdh-56" style="edgeStyle=orthogonalEdgeStyle;rounded=0;orthogonalLoop=1;jettySize=auto;html=1;exitX=1;exitY=1;exitDx=0;exitDy=0;" edge="1" parent="1" source="bujhWI78WCHv4hqRlmOy-23">
          <mxGeometry relative="1" as="geometry">
            <mxPoint x="280" y="1376.3333333333333" as="targetPoint" />
          </mxGeometry>
        </mxCell>
        <mxCell id="bujhWI78WCHv4hqRlmOy-23" value="OUTPUT&lt;div&gt;&lt;span style=&quot;background-color: initial;&quot;&gt;MENU&lt;/span&gt;&lt;/div&gt;&lt;div&gt;MANAJEMEN ATLET&lt;/div&gt;" style="shape=parallelogram;perimeter=parallelogramPerimeter;whiteSpace=wrap;html=1;fixedSize=1;strokeWidth=2;" parent="1" vertex="1">
          <mxGeometry x="150" y="1325" width="120" height="60" as="geometry" />
        </mxCell>
        <mxCell id="bujhWI78WCHv4hqRlmOy-27" value="" style="edgeStyle=orthogonalEdgeStyle;rounded=0;orthogonalLoop=1;jettySize=auto;html=1;" parent="1" source="bujhWI78WCHv4hqRlmOy-28" target="bujhWI78WCHv4hqRlmOy-30" edge="1">
          <mxGeometry relative="1" as="geometry" />
        </mxCell>
        <mxCell id="BIb3gX1T2sMR-RPmpEdh-57" style="edgeStyle=orthogonalEdgeStyle;rounded=0;orthogonalLoop=1;jettySize=auto;html=1;exitX=0;exitY=0;exitDx=0;exitDy=0;endArrow=none;endFill=0;startArrow=classic;startFill=1;" edge="1" parent="1" source="bujhWI78WCHv4hqRlmOy-28">
          <mxGeometry relative="1" as="geometry">
            <mxPoint x="140" y="1443.6666666666667" as="targetPoint" />
          </mxGeometry>
        </mxCell>
        <mxCell id="bujhWI78WCHv4hqRlmOy-28" value="INPUT&lt;div&gt;PILIHAN&lt;/div&gt;" style="shape=parallelogram;perimeter=parallelogramPerimeter;whiteSpace=wrap;html=1;fixedSize=1;strokeWidth=2;" parent="1" vertex="1">
          <mxGeometry x="150" y="1435" width="120" height="60" as="geometry" />
        </mxCell>
        <mxCell id="bujhWI78WCHv4hqRlmOy-29" value="" style="edgeStyle=orthogonalEdgeStyle;rounded=0;orthogonalLoop=1;jettySize=auto;html=1;" parent="1" source="bujhWI78WCHv4hqRlmOy-30" target="bujhWI78WCHv4hqRlmOy-31" edge="1">
          <mxGeometry relative="1" as="geometry" />
        </mxCell>
        <mxCell id="BIb3gX1T2sMR-RPmpEdh-39" value="" style="edgeStyle=orthogonalEdgeStyle;rounded=0;orthogonalLoop=1;jettySize=auto;html=1;" edge="1" parent="1" source="bujhWI78WCHv4hqRlmOy-30" target="bujhWI78WCHv4hqRlmOy-58">
          <mxGeometry relative="1" as="geometry" />
        </mxCell>
        <mxCell id="bujhWI78WCHv4hqRlmOy-30" value="IF&lt;div&gt;PILIHAN = 2&lt;/div&gt;&lt;div&gt;&lt;br&gt;&lt;/div&gt;" style="rhombus;whiteSpace=wrap;html=1;strokeWidth=2;" parent="1" vertex="1">
          <mxGeometry x="170" y="1565" width="80" height="80" as="geometry" />
        </mxCell>
        <mxCell id="BIb3gX1T2sMR-RPmpEdh-38" value="" style="edgeStyle=orthogonalEdgeStyle;rounded=0;orthogonalLoop=1;jettySize=auto;html=1;" edge="1" parent="1" source="bujhWI78WCHv4hqRlmOy-31" target="bujhWI78WCHv4hqRlmOy-60">
          <mxGeometry relative="1" as="geometry" />
        </mxCell>
        <mxCell id="bujhWI78WCHv4hqRlmOy-31" value="IF&lt;div&gt;PILIHAN = 5&lt;/div&gt;&lt;div&gt;&lt;br&gt;&lt;/div&gt;" style="rhombus;whiteSpace=wrap;html=1;strokeWidth=2;" parent="1" vertex="1">
          <mxGeometry x="170" y="1675" width="80" height="80" as="geometry" />
        </mxCell>
        <mxCell id="BIb3gX1T2sMR-RPmpEdh-53" value="" style="edgeStyle=orthogonalEdgeStyle;rounded=0;orthogonalLoop=1;jettySize=auto;html=1;" edge="1" parent="1" source="bujhWI78WCHv4hqRlmOy-34" target="BIb3gX1T2sMR-RPmpEdh-52">
          <mxGeometry relative="1" as="geometry" />
        </mxCell>
        <mxCell id="bujhWI78WCHv4hqRlmOy-34" value="IF&lt;div&gt;PILIHAN = 5&lt;/div&gt;&lt;div&gt;&lt;br&gt;&lt;/div&gt;" style="rhombus;whiteSpace=wrap;html=1;strokeWidth=2;" parent="1" vertex="1">
          <mxGeometry x="1720" y="880" width="80" height="80" as="geometry" />
        </mxCell>
        <mxCell id="bujhWI78WCHv4hqRlmOy-65" value="" style="edgeStyle=orthogonalEdgeStyle;rounded=0;orthogonalLoop=1;jettySize=auto;html=1;" parent="1" source="bujhWI78WCHv4hqRlmOy-58" target="bujhWI78WCHv4hqRlmOy-64" edge="1">
          <mxGeometry relative="1" as="geometry" />
        </mxCell>
        <mxCell id="BIb3gX1T2sMR-RPmpEdh-58" style="edgeStyle=orthogonalEdgeStyle;rounded=0;orthogonalLoop=1;jettySize=auto;html=1;exitX=1;exitY=1;exitDx=0;exitDy=0;" edge="1" parent="1" source="bujhWI78WCHv4hqRlmOy-58">
          <mxGeometry relative="1" as="geometry">
            <mxPoint x="440" y="1626.4" as="targetPoint" />
          </mxGeometry>
        </mxCell>
        <mxCell id="bujhWI78WCHv4hqRlmOy-58" value="OUTPUT&lt;div&gt;DAFTAR ATLET&lt;/div&gt;" style="shape=parallelogram;perimeter=parallelogramPerimeter;whiteSpace=wrap;html=1;fixedSize=1;strokeWidth=2;" parent="1" vertex="1">
          <mxGeometry x="310" y="1575" width="120" height="60" as="geometry" />
        </mxCell>
        <mxCell id="bujhWI78WCHv4hqRlmOy-60" value="CLEAR SCREEN&lt;div&gt;END&lt;/div&gt;" style="rounded=1;whiteSpace=wrap;html=1;strokeWidth=2;arcSize=50;" parent="1" vertex="1">
          <mxGeometry x="150" y="1800" width="120" height="60" as="geometry" />
        </mxCell>
        <mxCell id="BIb3gX1T2sMR-RPmpEdh-54" value="" style="edgeStyle=orthogonalEdgeStyle;rounded=0;orthogonalLoop=1;jettySize=auto;html=1;" edge="1" parent="1" source="bujhWI78WCHv4hqRlmOy-64" target="BIb3gX1T2sMR-RPmpEdh-50">
          <mxGeometry relative="1" as="geometry" />
        </mxCell>
        <mxCell id="BIb3gX1T2sMR-RPmpEdh-59" style="edgeStyle=orthogonalEdgeStyle;rounded=0;orthogonalLoop=1;jettySize=auto;html=1;exitX=0;exitY=0;exitDx=0;exitDy=0;endArrow=none;endFill=0;startArrow=classic;startFill=1;" edge="1" parent="1" source="bujhWI78WCHv4hqRlmOy-64">
          <mxGeometry relative="1" as="geometry">
            <mxPoint x="460" y="1583.6" as="targetPoint" />
          </mxGeometry>
        </mxCell>
        <mxCell id="bujhWI78WCHv4hqRlmOy-64" value="INPUT&lt;div&gt;ENTER UNTUK KEMBALI KE MENU&lt;/div&gt;" style="shape=parallelogram;perimeter=parallelogramPerimeter;whiteSpace=wrap;html=1;fixedSize=1;strokeWidth=2;" parent="1" vertex="1">
          <mxGeometry x="470" y="1575" width="120" height="60" as="geometry" />
        </mxCell>
        <mxCell id="bujhWI78WCHv4hqRlmOy-67" value="TRUE" style="text;html=1;align=center;verticalAlign=middle;whiteSpace=wrap;rounded=0;" parent="1" vertex="1">
          <mxGeometry x="400" y="460" width="60" height="30" as="geometry" />
        </mxCell>
        <mxCell id="bujhWI78WCHv4hqRlmOy-68" value="TRUE" style="text;html=1;align=center;verticalAlign=middle;whiteSpace=wrap;rounded=0;" parent="1" vertex="1">
          <mxGeometry x="400" y="570" width="60" height="30" as="geometry" />
        </mxCell>
        <mxCell id="bujhWI78WCHv4hqRlmOy-69" value="TRUE" style="text;html=1;align=center;verticalAlign=middle;whiteSpace=wrap;rounded=0;" parent="1" vertex="1">
          <mxGeometry x="354" y="770" width="60" height="30" as="geometry" />
        </mxCell>
        <mxCell id="bujhWI78WCHv4hqRlmOy-70" value="TRUE" style="text;html=1;align=center;verticalAlign=middle;whiteSpace=wrap;rounded=0;" parent="1" vertex="1">
          <mxGeometry x="1085" y="266" width="60" height="30" as="geometry" />
        </mxCell>
        <mxCell id="bujhWI78WCHv4hqRlmOy-71" value="TRUE" style="text;html=1;align=center;verticalAlign=middle;whiteSpace=wrap;rounded=0;" parent="1" vertex="1">
          <mxGeometry x="1089" y="395" width="60" height="30" as="geometry" />
        </mxCell>
        <mxCell id="bujhWI78WCHv4hqRlmOy-72" value="TRUE" style="text;html=1;align=center;verticalAlign=middle;whiteSpace=wrap;rounded=0;" parent="1" vertex="1">
          <mxGeometry x="250" y="1575" width="60" height="30" as="geometry" />
        </mxCell>
        <mxCell id="bujhWI78WCHv4hqRlmOy-73" value="TRUE" style="text;html=1;align=center;verticalAlign=middle;whiteSpace=wrap;rounded=0;" parent="1" vertex="1">
          <mxGeometry x="200" y="1755" width="60" height="30" as="geometry" />
        </mxCell>
        <mxCell id="bujhWI78WCHv4hqRlmOy-74" value="TRUE" style="text;html=1;align=center;verticalAlign=middle;whiteSpace=wrap;rounded=0;" parent="1" vertex="1">
          <mxGeometry x="1830" y="410" width="60" height="30" as="geometry" />
        </mxCell>
        <mxCell id="bujhWI78WCHv4hqRlmOy-75" value="TRUE" style="text;html=1;align=center;verticalAlign=middle;whiteSpace=wrap;rounded=0;" parent="1" vertex="1">
          <mxGeometry x="1810" y="520" width="60" height="30" as="geometry" />
        </mxCell>
        <mxCell id="bujhWI78WCHv4hqRlmOy-76" value="TRUE" style="text;html=1;align=center;verticalAlign=middle;whiteSpace=wrap;rounded=0;" parent="1" vertex="1">
          <mxGeometry x="1830" y="640" width="60" height="30" as="geometry" />
        </mxCell>
        <mxCell id="bujhWI78WCHv4hqRlmOy-77" value="TRUE" style="text;html=1;align=center;verticalAlign=middle;whiteSpace=wrap;rounded=0;" parent="1" vertex="1">
          <mxGeometry x="1800" y="760" width="60" height="30" as="geometry" />
        </mxCell>
        <mxCell id="bujhWI78WCHv4hqRlmOy-78" value="TRUE" style="text;html=1;align=center;verticalAlign=middle;whiteSpace=wrap;rounded=0;" parent="1" vertex="1">
          <mxGeometry x="1751" y="964" width="60" height="30" as="geometry" />
        </mxCell>
        <mxCell id="bujhWI78WCHv4hqRlmOy-79" value="FALSE" style="text;html=1;align=center;verticalAlign=middle;whiteSpace=wrap;rounded=0;" parent="1" vertex="1">
          <mxGeometry x="360" y="530" width="60" height="30" as="geometry" />
        </mxCell>
        <mxCell id="bujhWI78WCHv4hqRlmOy-80" value="FALSE" style="text;html=1;align=center;verticalAlign=middle;whiteSpace=wrap;rounded=0;" parent="1" vertex="1">
          <mxGeometry x="360" y="650" width="60" height="30" as="geometry" />
        </mxCell>
        <mxCell id="bujhWI78WCHv4hqRlmOy-81" value="FALSE" style="text;html=1;align=center;verticalAlign=middle;whiteSpace=wrap;rounded=0;" parent="1" vertex="1">
          <mxGeometry x="1049" y="340" width="60" height="30" as="geometry" />
        </mxCell>
        <mxCell id="bujhWI78WCHv4hqRlmOy-83" value="FALSE" style="text;html=1;align=center;verticalAlign=middle;whiteSpace=wrap;rounded=0;" parent="1" vertex="1">
          <mxGeometry x="210" y="1645" width="60" height="30" as="geometry" />
        </mxCell>
        <mxCell id="bujhWI78WCHv4hqRlmOy-84" value="FALSE" style="text;html=1;align=center;verticalAlign=middle;whiteSpace=wrap;rounded=0;" parent="1" vertex="1">
          <mxGeometry x="1760" y="480" width="60" height="30" as="geometry" />
        </mxCell>
        <mxCell id="bujhWI78WCHv4hqRlmOy-85" value="FALSE" style="text;html=1;align=center;verticalAlign=middle;whiteSpace=wrap;rounded=0;" parent="1" vertex="1">
          <mxGeometry x="1760" y="590" width="60" height="30" as="geometry" />
        </mxCell>
        <mxCell id="bujhWI78WCHv4hqRlmOy-86" value="FALSE" style="text;html=1;align=center;verticalAlign=middle;whiteSpace=wrap;rounded=0;" parent="1" vertex="1">
          <mxGeometry x="1760" y="710" width="60" height="30" as="geometry" />
        </mxCell>
        <mxCell id="bujhWI78WCHv4hqRlmOy-87" value="FALSE" style="text;html=1;align=center;verticalAlign=middle;whiteSpace=wrap;rounded=0;" parent="1" vertex="1">
          <mxGeometry x="1760" y="840" width="60" height="30" as="geometry" />
        </mxCell>
        <mxCell id="BIb3gX1T2sMR-RPmpEdh-5" value="" style="verticalLabelPosition=bottom;verticalAlign=top;html=1;shape=offPageConnector;rounded=0;size=0.5;" vertex="1" parent="1">
          <mxGeometry x="470" y="460" width="60" height="60" as="geometry" />
        </mxCell>
        <mxCell id="BIb3gX1T2sMR-RPmpEdh-7" value="LOGIN" style="text;html=1;align=center;verticalAlign=middle;whiteSpace=wrap;rounded=0;" vertex="1" parent="1">
          <mxGeometry x="470" y="470" width="60" height="30" as="geometry" />
        </mxCell>
        <mxCell id="BIb3gX1T2sMR-RPmpEdh-8" value="" style="verticalLabelPosition=bottom;verticalAlign=top;html=1;shape=offPageConnector;rounded=0;size=0.5;" vertex="1" parent="1">
          <mxGeometry x="470" y="570" width="60" height="60" as="geometry" />
        </mxCell>
        <mxCell id="BIb3gX1T2sMR-RPmpEdh-10" value="REGISTER" style="text;html=1;align=center;verticalAlign=middle;whiteSpace=wrap;rounded=0;" vertex="1" parent="1">
          <mxGeometry x="470" y="580" width="60" height="30" as="geometry" />
        </mxCell>
        <mxCell id="BIb3gX1T2sMR-RPmpEdh-12" value="" style="verticalLabelPosition=bottom;verticalAlign=top;html=1;shape=offPageConnector;rounded=0;size=0.5;" vertex="1" parent="1">
          <mxGeometry x="1020" y="35" width="60" height="60" as="geometry" />
        </mxCell>
        <mxCell id="BIb3gX1T2sMR-RPmpEdh-14" value="" style="edgeStyle=orthogonalEdgeStyle;rounded=0;orthogonalLoop=1;jettySize=auto;html=1;" edge="1" parent="1" source="BIb3gX1T2sMR-RPmpEdh-13" target="yG6ZhMst78t4kocirP4l-17">
          <mxGeometry relative="1" as="geometry" />
        </mxCell>
        <mxCell id="BIb3gX1T2sMR-RPmpEdh-13" value="LOGIN" style="text;html=1;align=center;verticalAlign=middle;whiteSpace=wrap;rounded=0;" vertex="1" parent="1">
          <mxGeometry x="1020" y="45" width="60" height="30" as="geometry" />
        </mxCell>
        <mxCell id="BIb3gX1T2sMR-RPmpEdh-15" value="" style="verticalLabelPosition=bottom;verticalAlign=top;html=1;shape=offPageConnector;rounded=0;size=0.5;" vertex="1" parent="1">
          <mxGeometry x="1470" y="40" width="60" height="60" as="geometry" />
        </mxCell>
        <mxCell id="BIb3gX1T2sMR-RPmpEdh-18" value="" style="edgeStyle=orthogonalEdgeStyle;rounded=0;orthogonalLoop=1;jettySize=auto;html=1;" edge="1" parent="1" source="BIb3gX1T2sMR-RPmpEdh-16" target="yG6ZhMst78t4kocirP4l-19">
          <mxGeometry relative="1" as="geometry" />
        </mxCell>
        <mxCell id="BIb3gX1T2sMR-RPmpEdh-16" value="REGISTER" style="text;html=1;align=center;verticalAlign=middle;whiteSpace=wrap;rounded=0;" vertex="1" parent="1">
          <mxGeometry x="1470" y="50" width="60" height="30" as="geometry" />
        </mxCell>
        <mxCell id="BIb3gX1T2sMR-RPmpEdh-20" value="" style="edgeStyle=orthogonalEdgeStyle;rounded=0;orthogonalLoop=1;jettySize=auto;html=1;" edge="1" parent="1" source="BIb3gX1T2sMR-RPmpEdh-19" target="yG6ZhMst78t4kocirP4l-3">
          <mxGeometry relative="1" as="geometry" />
        </mxCell>
        <mxCell id="BIb3gX1T2sMR-RPmpEdh-19" value="" style="verticalLabelPosition=bottom;verticalAlign=top;html=1;shape=offPageConnector;rounded=0;size=0.5;" vertex="1" parent="1">
          <mxGeometry x="180" y="180" width="60" height="60" as="geometry" />
        </mxCell>
        <mxCell id="BIb3gX1T2sMR-RPmpEdh-21" value="" style="verticalLabelPosition=bottom;verticalAlign=top;html=1;shape=offPageConnector;rounded=0;size=0.5;" vertex="1" parent="1">
          <mxGeometry x="1220" y="590" width="60" height="60" as="geometry" />
        </mxCell>
        <mxCell id="BIb3gX1T2sMR-RPmpEdh-22" value="HALAMAN&lt;div&gt;LOGIN&lt;/div&gt;" style="text;html=1;align=center;verticalAlign=middle;whiteSpace=wrap;rounded=0;" vertex="1" parent="1">
          <mxGeometry x="1220" y="600" width="60" height="30" as="geometry" />
        </mxCell>
        <mxCell id="BIb3gX1T2sMR-RPmpEdh-25" value="FALSE" style="text;html=1;align=center;verticalAlign=middle;whiteSpace=wrap;rounded=0;" vertex="1" parent="1">
          <mxGeometry x="1043" y="476" width="60" height="30" as="geometry" />
        </mxCell>
        <mxCell id="BIb3gX1T2sMR-RPmpEdh-26" value="MENU&lt;div&gt;AWAL&lt;/div&gt;" style="text;html=1;align=center;verticalAlign=middle;whiteSpace=wrap;rounded=0;" vertex="1" parent="1">
          <mxGeometry x="180" y="190" width="60" height="30" as="geometry" />
        </mxCell>
        <mxCell id="BIb3gX1T2sMR-RPmpEdh-27" value="" style="verticalLabelPosition=bottom;verticalAlign=top;html=1;shape=offPageConnector;rounded=0;size=0.5;" vertex="1" parent="1">
          <mxGeometry x="1730" y="35" width="60" height="60" as="geometry" />
        </mxCell>
        <mxCell id="BIb3gX1T2sMR-RPmpEdh-31" value="" style="edgeStyle=orthogonalEdgeStyle;rounded=0;orthogonalLoop=1;jettySize=auto;html=1;" edge="1" parent="1" source="BIb3gX1T2sMR-RPmpEdh-28" target="yG6ZhMst78t4kocirP4l-31">
          <mxGeometry relative="1" as="geometry" />
        </mxCell>
        <mxCell id="BIb3gX1T2sMR-RPmpEdh-28" value="ADMIN" style="text;html=1;align=center;verticalAlign=middle;whiteSpace=wrap;rounded=0;" vertex="1" parent="1">
          <mxGeometry x="1730" y="45" width="60" height="30" as="geometry" />
        </mxCell>
        <mxCell id="BIb3gX1T2sMR-RPmpEdh-33" value="" style="verticalLabelPosition=bottom;verticalAlign=top;html=1;shape=offPageConnector;rounded=0;size=0.5;" vertex="1" parent="1">
          <mxGeometry x="180" y="1230" width="60" height="60" as="geometry" />
        </mxCell>
        <mxCell id="BIb3gX1T2sMR-RPmpEdh-37" value="" style="edgeStyle=orthogonalEdgeStyle;rounded=0;orthogonalLoop=1;jettySize=auto;html=1;" edge="1" parent="1" source="BIb3gX1T2sMR-RPmpEdh-34" target="bujhWI78WCHv4hqRlmOy-23">
          <mxGeometry relative="1" as="geometry" />
        </mxCell>
        <mxCell id="BIb3gX1T2sMR-RPmpEdh-34" value="USER" style="text;html=1;align=center;verticalAlign=middle;whiteSpace=wrap;rounded=0;" vertex="1" parent="1">
          <mxGeometry x="180" y="1240" width="60" height="30" as="geometry" />
        </mxCell>
        <mxCell id="BIb3gX1T2sMR-RPmpEdh-42" value="" style="verticalLabelPosition=bottom;verticalAlign=top;html=1;shape=offPageConnector;rounded=0;size=0.5;" vertex="1" parent="1">
          <mxGeometry x="1150" y="395" width="60" height="60" as="geometry" />
        </mxCell>
        <mxCell id="BIb3gX1T2sMR-RPmpEdh-43" value="USER" style="text;html=1;align=center;verticalAlign=middle;whiteSpace=wrap;rounded=0;" vertex="1" parent="1">
          <mxGeometry x="1150" y="405" width="60" height="30" as="geometry" />
        </mxCell>
        <mxCell id="BIb3gX1T2sMR-RPmpEdh-44" value="" style="verticalLabelPosition=bottom;verticalAlign=top;html=1;shape=offPageConnector;rounded=0;size=0.5;" vertex="1" parent="1">
          <mxGeometry x="1150" y="266" width="60" height="60" as="geometry" />
        </mxCell>
        <mxCell id="BIb3gX1T2sMR-RPmpEdh-45" value="ADMIN" style="text;html=1;align=center;verticalAlign=middle;whiteSpace=wrap;rounded=0;" vertex="1" parent="1">
          <mxGeometry x="1150" y="276" width="60" height="30" as="geometry" />
        </mxCell>
        <mxCell id="BIb3gX1T2sMR-RPmpEdh-49" value="" style="verticalLabelPosition=bottom;verticalAlign=top;html=1;shape=offPageConnector;rounded=0;size=0.5;" vertex="1" parent="1">
          <mxGeometry x="500" y="1685" width="60" height="60" as="geometry" />
        </mxCell>
        <mxCell id="BIb3gX1T2sMR-RPmpEdh-50" value="MENU&lt;div&gt;AWAL&lt;/div&gt;" style="text;html=1;align=center;verticalAlign=middle;whiteSpace=wrap;rounded=0;" vertex="1" parent="1">
          <mxGeometry x="500" y="1695" width="60" height="30" as="geometry" />
        </mxCell>
        <mxCell id="BIb3gX1T2sMR-RPmpEdh-51" value="" style="verticalLabelPosition=bottom;verticalAlign=top;html=1;shape=offPageConnector;rounded=0;size=0.5;" vertex="1" parent="1">
          <mxGeometry x="1730" y="1000" width="60" height="60" as="geometry" />
        </mxCell>
        <mxCell id="BIb3gX1T2sMR-RPmpEdh-52" value="MENU&lt;div&gt;AWAL&lt;/div&gt;" style="text;html=1;align=center;verticalAlign=middle;whiteSpace=wrap;rounded=0;" vertex="1" parent="1">
          <mxGeometry x="1730" y="1010" width="60" height="30" as="geometry" />
        </mxCell>
      </root>
    </mxGraphModel>
  </diagram>
</mxfile>
